<?xml version="1.0" encoding="UTF-8"?>
<!DOCTYPE svg PUBLIC "-//W3C//DTD SVG 1.1//EN" "http://www.w3.org/Graphics/SVG/1.1/DTD/svg11.dtd">
<svg xmlns="http://www.w3.org/2000/svg" version="1.1" width="512px" height="512px" style="shape-rendering:geometricPrecision; text-rendering:geometricPrecision; image-rendering:optimizeQuality; fill-rule:evenodd; clip-rule:evenodd" xmlns:xlink="http://www.w3.org/1999/xlink">
<g><path style="opacity:0.99" fill="#ef6070" d="M 233.5,-0.5 C 267.167,-0.5 300.833,-0.5 334.5,-0.5C 352.943,1.97871 370.61,7.31204 387.5,15.5C 316.931,16.8311 246.264,16.8311 175.5,15.5C 194.01,7.10671 213.343,1.77338 233.5,-0.5 Z"/></g>
<g><path style="opacity:0.997" fill="#e95d72" d="M 175.5,15.5 C 246.264,16.8311 316.931,16.8311 387.5,15.5C 399.927,21.6011 411.26,29.2678 421.5,38.5C 327.001,39.4994 232.335,39.8327 137.5,39.5C 148.808,29.5037 161.474,21.5037 175.5,15.5 Z"/></g>
<g><path style="opacity:0.995" fill="#e45a75" d="M 421.5,38.5 C 430.762,47.0391 439.095,56.3725 446.5,66.5C 401.833,66.5 357.167,66.5 312.5,66.5C 312.666,60.8236 312.499,55.1569 312,49.5C 311.206,46.1691 309.039,44.3358 305.5,44C 287.5,43.3333 269.5,43.3333 251.5,44C 249.152,44.3459 247.319,45.5125 246,47.5C 245.502,50.4816 245.335,53.4816 245.5,56.5C 244.521,59.6248 244.187,62.9581 244.5,66.5C 200.833,66.5 157.167,66.5 113.5,66.5C 120.043,56.285 128.043,47.285 137.5,39.5C 232.335,39.8327 327.001,39.4994 421.5,38.5 Z"/></g>
<g><path style="opacity:0.981" fill="#de5677" d="M 299.5,89.5 C 285.5,89.5 271.5,89.5 257.5,89.5C 258.454,78.8848 258.787,68.2181 258.5,57.5C 272.167,57.5 285.833,57.5 299.5,57.5C 299.5,68.1667 299.5,78.8333 299.5,89.5 Z"/></g>
<g><path style="opacity:0.992" fill="#dd5677" d="M 245.5,56.5 C 245.831,65.1922 245.498,73.8589 244.5,82.5C 233.883,87.1402 223.883,92.8069 214.5,99.5C 204.382,93.6924 194.215,88.0257 184,82.5C 180.007,83.9942 177.174,86.6609 175.5,90.5C 150.983,90.1638 126.65,89.1638 102.5,87.5C 105.391,80.0506 109.057,73.0506 113.5,66.5C 157.167,66.5 200.833,66.5 244.5,66.5C 244.187,62.9581 244.521,59.6248 245.5,56.5 Z"/></g>
<g><path style="opacity:0.992" fill="#dd5677" d="M 312.5,66.5 C 357.167,66.5 401.833,66.5 446.5,66.5C 451.605,73.7074 455.938,81.3741 459.5,89.5C 433.5,89.5 407.5,89.5 381.5,89.5C 380.221,87.8767 378.887,86.21 377.5,84.5C 375.232,83.4557 372.899,83.289 370.5,84C 361.328,89.4204 351.994,94.587 342.5,99.5C 333.206,92.9352 323.373,87.2685 313,82.5C 312.501,77.1771 312.334,71.8437 312.5,66.5 Z"/></g>
<g><path style="opacity:0.989" fill="#d75379" d="M 102.5,87.5 C 126.65,89.1638 150.983,90.1638 175.5,90.5C 171.833,97.1667 168.167,103.833 164.5,110.5C 141.575,109.511 118.575,109.178 95.5,109.5C 96.6576,101.698 98.9909,94.3643 102.5,87.5 Z"/></g>
<g><path style="opacity:0.992" fill="#d85379" d="M 381.5,89.5 C 407.5,89.5 433.5,89.5 459.5,89.5C 463.013,95.8655 466.013,102.532 468.5,109.5C 443.167,109.5 417.833,109.5 392.5,109.5C 388.313,103.127 384.647,96.4607 381.5,89.5 Z"/></g>
<g><path style="opacity:0.99" fill="#d3507a" d="M 257.5,89.5 C 271.5,89.5 285.5,89.5 299.5,89.5C 309.108,94.6394 318.775,99.806 328.5,105C 332.214,108.899 336.547,111.732 341.5,113.5C 351.553,109.306 361.22,104.306 370.5,98.5C 377.334,108.828 383.667,119.495 389.5,130.5C 362.167,130.5 334.833,130.5 307.5,130.5C 288.167,119.833 268.833,119.833 249.5,130.5C 222.5,130.5 195.5,130.5 168.5,130.5C 173.969,119.564 179.969,108.897 186.5,98.5C 195.971,103.995 205.638,108.995 215.5,113.5C 217.299,113.423 218.966,112.923 220.5,112C 223.833,109.333 227.167,106.667 230.5,104C 239.593,99.1234 248.593,94.29 257.5,89.5 Z"/></g>
<g><path style="opacity:0.992" fill="#d24f7b" d="M 95.5,109.5 C 118.575,109.178 141.575,109.511 164.5,110.5C 160.863,117.451 156.863,124.118 152.5,130.5C 132.167,130.5 111.833,130.5 91.5,130.5C 92.1034,123.235 93.4368,116.235 95.5,109.5 Z"/></g>
<g><path style="opacity:0.993" fill="#d24f7b" d="M 392.5,109.5 C 417.833,109.5 443.167,109.5 468.5,109.5C 471.618,118.971 473.951,128.637 475.5,138.5C 474.596,137.791 474.263,136.791 474.5,135.5C 451.833,135.5 429.167,135.5 406.5,135.5C 401.833,126.833 397.167,118.167 392.5,109.5 Z"/></g>
<g><path style="opacity:0.986" fill="#cb4b7e" d="M 91.5,130.5 C 111.833,130.5 132.167,130.5 152.5,130.5C 151.565,133.113 151.398,135.779 152,138.5C 161.586,144.711 171.419,150.544 181.5,156C 181.784,157.956 181.784,160.123 181.5,162.5C 151.426,162.175 121.426,162.508 91.5,163.5C 90.1967,152.503 90.1967,141.503 91.5,130.5 Z"/></g>
<g><path style="opacity:0.982" fill="#cc4c7d" d="M 168.5,130.5 C 195.5,130.5 222.5,130.5 249.5,130.5C 238.629,138.709 231.296,149.376 227.5,162.5C 216.5,162.5 205.5,162.5 194.5,162.5C 194.692,159.399 195.358,156.399 196.5,153.5C 195.902,152.205 195.402,150.872 195,149.5C 185.582,143.874 176.082,138.374 166.5,133C 167.066,132.005 167.733,131.172 168.5,130.5 Z"/></g>
<g><path style="opacity:0.976" fill="#ca4b7e" d="M 315.5,161.5 C 291.006,162.498 266.339,162.831 241.5,162.5C 247.529,144.976 259.862,135.976 278.5,135.5C 296.935,135.616 309.268,144.283 315.5,161.5 Z"/></g>
<g><path style="opacity:0.98" fill="#cc4c7d" d="M 307.5,130.5 C 334.833,130.5 362.167,130.5 389.5,130.5C 390.684,131.688 390.684,132.855 389.5,134C 380.071,139.102 370.905,144.602 362,150.5C 361.643,154.51 361.81,158.51 362.5,162.5C 351.419,162.19 340.419,162.523 329.5,163.5C 326.15,149.821 318.816,138.821 307.5,130.5 Z"/></g>
<g><path style="opacity:0.99" fill="#cb4b7e" d="M 406.5,135.5 C 429.167,135.5 451.833,135.5 474.5,135.5C 474.263,136.791 474.596,137.791 475.5,138.5C 476.929,146.415 477.596,154.415 477.5,162.5C 443.76,162.174 410.094,162.507 376.5,163.5C 375.351,160.959 375.351,158.459 376.5,156C 384.672,151.08 393.005,146.413 401.5,142C 404.012,140.473 405.679,138.306 406.5,135.5 Z"/></g>
<g><path style="opacity:0.99" fill="#c44780" d="M 181.5,162.5 C 180.534,170.08 180.201,177.747 180.5,185.5C 149.833,185.5 119.167,185.5 88.5,185.5C 90.4317,178.311 91.4317,170.978 91.5,163.5C 121.426,162.508 151.426,162.175 181.5,162.5 Z"/></g>
<g><path style="opacity:0.991" fill="#c44780" d="M 315.5,161.5 C 318.967,169.286 319.3,177.286 316.5,185.5C 291.092,185.177 265.759,185.51 240.5,186.5C 238.888,178.278 239.221,170.278 241.5,162.5C 266.339,162.831 291.006,162.498 315.5,161.5 Z"/></g>
<g><path style="opacity:0.995" fill="#c44780" d="M 477.5,162.5 C 477.767,170.222 477.434,177.889 476.5,185.5C 443.167,185.5 409.833,185.5 376.5,185.5C 377.833,178.167 377.833,170.833 376.5,163.5C 410.094,162.507 443.76,162.174 477.5,162.5 Z"/></g>
<g><path style="opacity:0.983" fill="#c04582" d="M 362.5,162.5 C 363.325,166.499 363.992,170.665 364.5,175C 363.431,182.855 362.598,190.688 362,198.5C 365.969,201.889 370.136,204.889 374.5,207.5C 356.167,208.833 337.833,208.833 319.5,207.5C 329.784,194.368 333.117,179.702 329.5,163.5C 340.419,162.523 351.419,162.19 362.5,162.5 Z"/></g>
<g><path style="opacity:0.993" fill="#be4483" d="M 88.5,185.5 C 119.167,185.5 149.833,185.5 180.5,185.5C 181.729,188.135 181.729,190.801 180.5,193.5C 171.483,198.861 162.483,204.194 153.5,209.5C 128.672,208.502 103.672,208.169 78.5,208.5C 82.6044,201.193 85.9378,193.526 88.5,185.5 Z"/></g>
<g><path style="opacity:0.982" fill="#c04582" d="M 194.5,162.5 C 205.5,162.5 216.5,162.5 227.5,162.5C 224.378,179.005 227.711,194.005 237.5,207.5C 228.673,208.166 219.673,208.5 210.5,208.5C 201.141,208.498 192.141,207.832 183.5,206.5C 187.139,204.345 190.806,202.178 194.5,200C 195.26,198.559 195.926,197.059 196.5,195.5C 193.428,184.644 192.761,173.644 194.5,162.5 Z"/></g>
<g><path style="opacity:0.988" fill="#be4483" d="M 376.5,185.5 C 409.833,185.5 443.167,185.5 476.5,185.5C 475.918,193.329 474.584,200.996 472.5,208.5C 449.661,208.169 426.994,208.503 404.5,209.5C 395.221,204.19 385.888,198.857 376.5,193.5C 375.551,190.874 375.551,188.208 376.5,185.5 Z"/></g>
<g><path style="opacity:0.979" fill="#bd4383" d="M 316.5,185.5 C 307.432,209.038 290.432,217.871 265.5,212C 252.944,207.611 244.611,199.111 240.5,186.5C 265.759,185.51 291.092,185.177 316.5,185.5 Z"/></g>
<g><path style="opacity:0.988" fill="#b84085" d="M 183.5,206.5 C 192.141,207.832 201.141,208.498 210.5,208.5C 219.673,208.5 228.673,208.166 237.5,207.5C 254.282,225.946 274.615,231.113 298.5,223C 306.833,219.481 313.833,214.314 319.5,207.5C 337.833,208.833 356.167,208.833 374.5,207.5C 380.486,209.824 385.82,213.158 390.5,217.5C 388.059,222.065 385.392,226.398 382.5,230.5C 313.238,231.496 243.904,231.83 174.5,231.5C 171.719,226.774 169.052,221.941 166.5,217C 172.195,213.489 177.861,209.989 183.5,206.5 Z"/></g>
<g><path style="opacity:0.99" fill="#b74085" d="M 78.5,208.5 C 103.672,208.169 128.672,208.502 153.5,209.5C 151.609,211.836 151.109,214.502 152,217.5C 155.729,223.723 159.229,230.057 162.5,236.5C 127.004,237.498 91.3372,237.832 55.5,237.5C 63.8998,228.34 71.5665,218.674 78.5,208.5 Z"/></g>
<g><path style="opacity:0.99" fill="#b84185" d="M 472.5,208.5 C 470.602,216.531 467.935,224.197 464.5,231.5C 442.327,231.831 420.327,231.497 398.5,230.5C 401.156,225.189 403.822,219.855 406.5,214.5C 405.826,212.805 405.159,211.138 404.5,209.5C 426.994,208.503 449.661,208.169 472.5,208.5 Z"/></g>
<g><path style="opacity:0.988" fill="#b13d87" d="M 398.5,230.5 C 420.327,231.497 442.327,231.831 464.5,231.5C 461.12,241.262 456.454,250.262 450.5,258.5C 427.994,258.831 405.66,258.497 383.5,257.5C 387.743,248.009 392.743,239.009 398.5,230.5 Z"/></g>
<g><path style="opacity:0.993" fill="#b13c87" d="M 162.5,236.5 C 167.005,243.505 171.005,250.839 174.5,258.5C 128.33,258.832 82.3303,258.499 36.5,257.5C 42.1305,250.202 48.4639,243.535 55.5,237.5C 91.3372,237.832 127.004,237.498 162.5,236.5 Z"/></g>
<g><path style="opacity:0.986" fill="#b23d87" d="M 382.5,230.5 C 379.199,237.766 375.366,244.766 371,251.5C 361.333,245.833 351.667,240.167 342,234.5C 335.188,239.304 328.355,244.137 321.5,249C 314.443,252.198 307.443,255.364 300.5,258.5C 286.14,258.47 271.473,258.47 256.5,258.5C 247.282,254.558 238.282,250.058 229.5,245C 226.203,242.705 223.203,240.038 220.5,237C 217.167,235 213.833,235 210.5,237C 202.666,242.085 194.666,246.918 186.5,251.5C 182.489,244.806 178.489,238.139 174.5,231.5C 243.904,231.83 313.238,231.496 382.5,230.5 Z"/></g>
<g><path style="opacity:0.972" fill="#a93e8b" d="M 300.5,258.5 C 299.54,265.078 299.207,271.745 299.5,278.5C 286.413,280.453 273.08,281.12 259.5,280.5C 259.737,279.209 259.404,278.209 258.5,277.5C 259.032,270.952 258.365,264.618 256.5,258.5C 271.473,258.47 286.14,258.47 300.5,258.5 Z"/></g>
<g><path style="opacity:0.989" fill="#ab3c8a" d="M 245.5,275.5 C 244.539,273.735 244.205,271.735 244.5,269.5C 174.331,269.167 104.331,269.501 34.5,270.5C 32.8336,265.841 33.5003,261.508 36.5,257.5C 82.3303,258.499 128.33,258.832 174.5,258.5C 176.361,261.022 178.361,263.522 180.5,266C 182.5,266.667 184.5,266.667 186.5,266C 195.998,260.752 205.331,255.252 214.5,249.5C 223.646,257.309 233.98,262.975 245.5,266.5C 245.5,269.5 245.5,272.5 245.5,275.5 Z"/></g>
<g><path style="opacity:0.985" fill="#ac3c8a" d="M 383.5,257.5 C 405.66,258.497 427.994,258.831 450.5,258.5C 449.439,261.622 448.105,264.622 446.5,267.5C 401.984,269.477 357.317,270.144 312.5,269.5C 312.5,268.5 312.5,267.5 312.5,266.5C 323.701,262.901 333.701,257.234 342.5,249.5C 352.788,255.893 363.288,261.893 374,267.5C 375.586,266.624 377.086,265.624 378.5,264.5C 379.943,261.923 381.61,259.59 383.5,257.5 Z"/></g>
<g><path style="opacity:0.995" fill="#a5418d" d="M 245.5,275.5 C 245.5,276.5 245.5,277.5 245.5,278.5C 183.715,280.49 121.715,281.157 59.5,280.5C 50.7005,280.636 42.7005,278.303 35.5,273.5C 34.8728,272.583 34.5394,271.583 34.5,270.5C 104.331,269.501 174.331,269.167 244.5,269.5C 244.205,271.735 244.539,273.735 245.5,275.5 Z"/></g>
<g><path style="opacity:0.997" fill="#a5418d" d="M 446.5,267.5 C 444.405,272.027 442.072,276.361 439.5,280.5C 397.5,280.5 355.5,280.5 313.5,280.5C 313.737,279.209 313.404,278.209 312.5,277.5C 312.5,274.833 312.5,272.167 312.5,269.5C 357.317,270.144 401.984,269.477 446.5,267.5 Z"/></g>
<g><path style="opacity:0.996" fill="#9f4591" d="M 245.5,278.5 C 245.5,281.5 245.5,284.5 245.5,287.5C 244.596,288.209 244.263,289.209 244.5,290.5C 191.331,290.168 138.331,290.501 85.5,291.5C 77.7852,285.487 69.1185,281.82 59.5,280.5C 121.715,281.157 183.715,280.49 245.5,278.5 Z"/></g>
<g><path style="opacity:0.995" fill="#9e4691" d="M 258.5,277.5 C 259.404,278.209 259.737,279.209 259.5,280.5C 273.08,281.12 286.413,280.453 299.5,278.5C 299.5,283.167 299.5,287.833 299.5,292.5C 285.833,292.5 272.167,292.5 258.5,292.5C 258.5,287.5 258.5,282.5 258.5,277.5 Z"/></g>
<g><path style="opacity:0.995" fill="#9f4591" d="M 312.5,277.5 C 313.404,278.209 313.737,279.209 313.5,280.5C 355.5,280.5 397.5,280.5 439.5,280.5C 438.452,284.264 437.119,287.931 435.5,291.5C 394.572,290.506 353.572,290.173 312.5,290.5C 312.5,286.167 312.5,281.833 312.5,277.5 Z"/></g>
<g><path style="opacity:0.993" fill="#984b95" d="M 245.5,287.5 C 245.5,292.5 245.5,297.5 245.5,302.5C 193.997,302.168 142.664,302.501 91.5,303.5C 90.0652,299.297 88.0652,295.297 85.5,291.5C 138.331,290.501 191.331,290.168 244.5,290.5C 244.263,289.209 244.596,288.209 245.5,287.5 Z"/></g>
<g><path style="opacity:0.996" fill="#984b95" d="M 312.5,290.5 C 353.572,290.173 394.572,290.506 435.5,291.5C 434.011,295.323 432.344,298.99 430.5,302.5C 390.833,302.5 351.167,302.5 311.5,302.5C 312.36,298.566 312.693,294.566 312.5,290.5 Z"/></g>
<g><path style="opacity:0.997" fill="#924f98" d="M 245.5,302.5 C 247.113,304.27 249.113,305.436 251.5,306C 269.5,306.667 287.5,306.667 305.5,306C 308.025,305.576 310.025,304.41 311.5,302.5C 351.167,302.5 390.833,302.5 430.5,302.5C 429.901,305.963 428.901,309.296 427.5,312.5C 315.833,312.5 204.167,312.5 92.5,312.5C 92.0371,309.518 91.7038,306.518 91.5,303.5C 142.664,302.501 193.997,302.168 245.5,302.5 Z"/></g>
<g><path style="opacity:0.998" fill="#8d539b" d="M 92.5,312.5 C 204.167,312.5 315.833,312.5 427.5,312.5C 426.681,314.772 426.015,317.106 425.5,319.5C 314.5,319.5 203.5,319.5 92.5,319.5C 92.5,317.167 92.5,314.833 92.5,312.5 Z"/></g>
<g><path style="opacity:0.999" fill="#88569d" d="M 92.5,319.5 C 203.5,319.5 314.5,319.5 425.5,319.5C 424.677,321.987 423.677,324.321 422.5,326.5C 312.5,326.5 202.5,326.5 92.5,326.5C 92.5,324.167 92.5,321.833 92.5,319.5 Z"/></g>
<g><path style="opacity:0.998" fill="#8459a0" d="M 92.5,326.5 C 202.5,326.5 312.5,326.5 422.5,326.5C 422.074,330.427 421.074,334.093 419.5,337.5C 310.833,337.5 202.167,337.5 93.5,337.5C 92.6561,333.901 92.3227,330.234 92.5,326.5 Z"/></g>
<g><path style="opacity:0.997" fill="#7e5ea3" d="M 93.5,337.5 C 202.167,337.5 310.833,337.5 419.5,337.5C 419.675,339.621 419.341,341.621 418.5,343.5C 310.5,344.167 202.5,344.833 94.5,345.5C 93.7347,342.904 93.4013,340.237 93.5,337.5 Z"/></g>
<g><path style="opacity:0.997" fill="#7961a6" d="M 418.5,343.5 C 417.96,346.865 417.294,350.198 416.5,353.5C 309.833,353.5 203.167,353.5 96.5,353.5C 95.2318,351.095 94.5651,348.428 94.5,345.5C 202.5,344.833 310.5,344.167 418.5,343.5 Z"/></g>
<g><path style="opacity:0.998" fill="#7365a9" d="M 96.5,353.5 C 203.167,353.5 309.833,353.5 416.5,353.5C 415.94,357.193 415.273,360.86 414.5,364.5C 309.5,364.5 204.5,364.5 99.5,364.5C 97.7424,361.146 96.7424,357.479 96.5,353.5 Z"/></g>
<g><path style="opacity:0.999" fill="#6d6aad" d="M 99.5,364.5 C 204.5,364.5 309.5,364.5 414.5,364.5C 414.384,367.86 414.051,371.193 413.5,374.5C 310.332,374.167 207.332,374.501 104.5,375.5C 102.049,372.26 100.382,368.593 99.5,364.5 Z"/></g>
<g><path style="opacity:0.998" fill="#676eb0" d="M 413.5,374.5 C 413.167,378.5 412.833,382.5 412.5,386.5C 312.833,386.5 213.167,386.5 113.5,386.5C 109.395,383.73 106.395,380.063 104.5,375.5C 207.332,374.501 310.332,374.167 413.5,374.5 Z"/></g>
<g><path style="opacity:0.996" fill="#6074b4" d="M 113.5,386.5 C 213.167,386.5 312.833,386.5 412.5,386.5C 412.5,390.167 412.5,393.833 412.5,397.5C 318.999,397.167 225.665,397.501 132.5,398.5C 125.009,396.259 118.676,392.259 113.5,386.5 Z"/></g>
<g><path style="opacity:0.995" fill="#5a78b7" d="M 412.5,397.5 C 412.279,400.279 412.612,402.946 413.5,405.5C 332.878,407.161 252.211,408.161 171.5,408.5C 158.196,405.912 145.196,402.578 132.5,398.5C 225.665,397.501 318.999,397.167 412.5,397.5 Z"/></g>
<g><path style="opacity:0.997" fill="#537dbb" d="M 413.5,405.5 C 413.646,409.519 413.979,413.519 414.5,417.5C 338.862,417.494 263.528,417.494 188.5,417.5C 183.277,413.721 177.61,410.721 171.5,408.5C 252.211,408.161 332.878,407.161 413.5,405.5 Z"/></g>
<g><path style="opacity:0.996" fill="#4e81be" d="M 414.5,417.5 C 415.403,420.391 415.736,423.391 415.5,426.5C 342.5,427.167 269.5,427.833 196.5,428.5C 193.865,424.857 191.199,421.19 188.5,417.5C 263.528,417.494 338.862,417.494 414.5,417.5 Z"/></g>
<g><path style="opacity:0.998" fill="#4786c2" d="M 415.5,426.5 C 416.593,431.306 417.259,436.306 417.5,441.5C 345.167,441.5 272.833,441.5 200.5,441.5C 199.167,437.167 197.833,432.833 196.5,428.5C 269.5,427.833 342.5,427.167 415.5,426.5 Z"/></g>
<g><path style="opacity:0.997" fill="#3d8dc8" d="M 200.5,441.5 C 272.833,441.5 345.167,441.5 417.5,441.5C 418.531,447.442 419.197,453.442 419.5,459.5C 347.429,459.17 275.429,459.503 203.5,460.5C 202.908,454.091 201.908,447.757 200.5,441.5 Z"/></g>
<g><path style="opacity:0.997" fill="#3693cc" d="M 419.5,459.5 C 420.403,462.391 420.736,465.391 420.5,468.5C 348.096,468.83 275.762,468.497 203.5,467.5C 203.5,465.167 203.5,462.833 203.5,460.5C 275.429,459.503 347.429,459.17 419.5,459.5 Z"/></g>
<g><path style="opacity:0.996" fill="#2f98d0" d="M 203.5,467.5 C 275.762,468.497 348.096,468.83 420.5,468.5C 421.378,472.336 422.044,476.336 422.5,480.5C 349.571,481.497 276.571,481.83 203.5,481.5C 203.5,476.833 203.5,472.167 203.5,467.5 Z"/></g>
<g><path style="opacity:0.999" fill="#289dd3" d="M 422.5,480.5 C 422.833,483.833 423.167,487.167 423.5,490.5C 350.167,491.167 276.833,491.833 203.5,492.5C 203.5,488.833 203.5,485.167 203.5,481.5C 276.571,481.83 349.571,481.497 422.5,480.5 Z"/></g>
<g><path style="opacity:0.999" fill="#1fa4d9" d="M 423.5,490.5 C 423.962,495.028 424.629,499.528 425.5,504C 425.006,507.008 423.673,509.508 421.5,511.5C 349.5,511.5 277.5,511.5 205.5,511.5C 204.878,510.373 204.045,509.373 203,508.5C 202.183,502.984 202.349,497.65 203.5,492.5C 276.833,491.833 350.167,491.167 423.5,490.5 Z"/></g>
</svg>
